<svg xmlns="http://www.w3.org/2000/svg" version="1.1" xmlns:xlink="http://www.w3.org/1999/xlink" xmlns:svgjs="http://svgjs.dev/svgjs" width="1500" height="329" viewBox="0 0 1500 329"><g transform="matrix(1,0,0,1,-0.9090909090909918,-1.0741620429896273)"><svg viewBox="0 0 396 87" data-background-color="#0f0f0f" preserveAspectRatio="xMidYMid meet" height="329" width="1500" xmlns="http://www.w3.org/2000/svg" xmlns:xlink="http://www.w3.org/1999/xlink"><g id="tight-bounds" transform="matrix(1,0,0,1,0.2400000000000091,0.28404892930120695)"><svg viewBox="0 0 395.52 86.43190214139759" height="86.43190214139759" width="395.52"><g><svg viewBox="0 0 653.1925052816304 142.74036887134963" height="86.43190214139759" width="395.52"><g transform="matrix(1,0,0,1,0,19.37402709824083)"><svg viewBox="0 0 395.52 103.99231467486797" height="103.99231467486797" width="395.52"><g id="textblocktransform"><svg viewBox="0 0 395.52 103.99231467486797" height="103.99231467486797" width="395.52" id="textblock"><g><svg viewBox="0 0 395.52 56.08848540991199" height="56.08848540991199" width="395.52"><g transform="matrix(1,0,0,1,0,0)"><svg width="395.52" viewBox="3.32 -34.45 316.23 44.85" height="56.08848540991199" data-palette-color="#505050"><path d="M6.15-27.44L6.15-27.44 5.74-31.81Q5.74-32.32 6.4-32.85 7.06-33.37 8.35-33.37L8.35-33.37Q11.3-33.37 13.12-30.66 14.94-27.95 18.77-18.36L18.77-18.36Q20.43-14.31 20.73-13.77L20.73-13.77 21.26-13.06Q21.8-13.06 26.05-21.02L26.05-21.02Q30.3-29 31.35-30.47L31.35-30.47Q33.45-33.4 36.69-33.4L36.69-33.4Q38.99-33.4 38.99-31.71L38.99-31.71 38.84-30.91 38.62-29.93Q38.35-28.44 38.26-23.3 38.16-18.16 37.96-12.99L37.96-12.99 37.84-9.13Q37.84-6.67 38.11-5.66L38.11-5.66 38.45-4.71Q38.94-3.39 38.94-2.75 38.94-2.1 38.23-1.54 37.52-0.98 36.65-0.98L36.65-0.98 35.72-0.98Q34.47-0.98 33.47-1.98 32.47-2.98 32.47-4.09 32.47-5.2 32.7-7.42 32.93-9.64 32.93-16.93 32.93-24.22 32.5-24.22L32.5-24.22Q31.84-24.22 27.94-15.92 24.05-7.62 22.97-6.01 21.9-4.39 20.59-4.39 19.29-4.39 18.33-6.23L18.33-6.23Q17.97-6.93 14.88-15.52 11.79-24.1 11.06-24.1L11.06-24.1Q10.74-24.1 10.46-23.25 10.18-22.41 9.46-15.53 8.74-8.64 8.74-6.26 8.74-3.88 7.96-2.7 7.18-1.51 5.25-1.51 3.32-1.51 3.32-3.37L3.32-3.37Q3.32-3.61 4.03-5.47 4.74-7.32 4.98-9.59L4.98-9.59Q6.15-20.36 6.15-27.44ZM53.32-3.08L53.32-3.08 53.95-3.08Q55.95-3.08 57.48-4.43 59.01-5.79 59.01-7.57L59.01-7.57 59.06-7.89 59.06-8.2 59.1-8.96 59.1-10.35Q59.1-11.77 57.66-11.77L57.66-11.77 56.56-11.77 56.39-11.74 55.44-11.67Q54.76-11.57 54.47-11.57L54.47-11.57Q52.49-11.57 50.8-10.08L50.8-10.08Q49.63-9.03 49.63-7.1L49.63-7.1 49.63-6.62Q49.63-4.98 50.69-4.03 51.76-3.08 53.32-3.08ZM47.87-18.68L47.87-18.68Q46.24-18.68 46.24-20.78L46.24-20.78Q46.24-22.34 48.89-23.5 51.54-24.66 54.39-24.66L54.39-24.66 55.61-24.66Q58.08-24.66 59.96-23.74 61.84-22.83 62.83-21.26 63.82-19.7 64.04-17.19L64.04-17.19Q64.08-16.6 64.08-11.5 64.08-6.4 64.22-5.63 64.35-4.86 65-3.76 65.65-2.66 65.65-1.95 65.65-1.25 64.98-0.74 64.3-0.24 63.03-0.24 61.77-0.24 60.28-0.87 58.79-1.49 58.1-1.49L58.1-1.49Q58.03-1.49 55.66-0.62 53.29 0.24 51.66 0.24L51.66 0.24 51.12 0.24Q48.39 0.24 46.47-1.49 44.55-3.22 44.55-6.42 44.55-9.62 46.65-11.41 48.75-13.21 51.76-13.87L51.76-13.87Q52.66-14.06 54.76-14.38 56.86-14.7 57.61-15.04L57.61-15.04Q58.93-15.65 58.93-17.35 58.93-19.04 57.81-20.01 56.69-20.97 55.14-20.97 53.59-20.97 51.07-19.82 48.56-18.68 47.87-18.68ZM83.98-2.61L83.98-2.61Q83.98-1.64 82.8-0.87 81.61-0.1 79.58-0.1L79.58-0.1Q75.8-0.1 74.26-2.91L74.26-2.91Q73.31-4.66 73.31-11.13 73.31-17.6 73.09-18.65 72.87-19.7 71.87-20.7 70.87-21.7 70.87-22.24L70.87-22.24Q70.87-22.44 73.24-24.8L73.24-24.8Q73.75-25.32 74.27-27.08 74.8-28.83 75.02-29.39L75.02-29.39Q75.75-31.15 76.95-31.15L76.95-31.15 77.34-31.15Q78.39-31.15 78.83-30.35L78.83-30.35Q79-30.03 79.35-28.06 79.71-26.1 80.17-25.54 80.63-24.98 82.5-24.3 84.37-23.63 84.37-22.88L84.37-22.88 84.37-22.61Q84.37-21.63 82.23-20.96 80.1-20.29 79.49-18.82L79.49-18.82Q78.29-15.87 78.29-9.2L78.29-9.2Q78.29-6.08 79.37-4.96L79.37-4.96Q80.02-4.27 82-4 83.98-3.74 83.98-2.61ZM93.91-14.84L93.91-14.84 93.91-14.45Q93.91-13.72 95.26-13.72L95.26-13.72 95.84-13.72 95.99-13.75 97.18-13.84Q99.06-14.11 99.63-14.11L99.63-14.11Q102.29-14.11 103.63-15.11L103.63-15.11Q104.26-15.6 104.26-16.85L104.26-16.85 104.26-17.11Q104.26-18.95 103.06-20.02 101.85-21.09 100.16-21.09L100.16-21.09 99.99-21.09 99.85-21.07Q97.48-21.07 95.7-19.07 93.91-17.07 93.91-14.84ZM99.24 0.32L99.24 0.32 98.7 0.32Q94.04 0.32 91.28-2.65 88.52-5.62 88.52-10.57L88.52-10.57 88.52-11.65Q88.52-14.01 89.45-16.46L89.45-16.46Q91.33-21.34 95.57-23.19L95.57-23.19Q97.82-24.19 100.14-24.19L100.14-24.19 101.19-24.19Q104.39-24.19 106.6-22.06 108.81-19.92 108.81-16.55L108.81-16.55 108.81-16.06Q108.81-13.67 106.9-12.67L106.9-12.67Q105.58-11.96 100.75-11.25 95.92-10.55 95.48-10.4L95.48-10.4Q94.01-9.89 94.01-8.45L94.01-8.45Q94.01-6.45 95.72-5.03 97.43-3.61 100.31-3.61L100.31-3.61Q101.65-3.61 103.97-4.35 106.29-5.08 106.66-5.08L106.66-5.08Q107.9-5.08 107.9-4L107.9-4Q107.9-2.56 105.1-1.12 102.29 0.32 99.24 0.32ZM118.54-14.84L118.54-14.84 118.54-14.45Q118.54-13.72 119.89-13.72L119.89-13.72 120.47-13.72 120.62-13.75 121.82-13.84Q123.7-14.11 124.26-14.11L124.26-14.11Q126.92-14.11 128.26-15.11L128.26-15.11Q128.9-15.6 128.9-16.85L128.9-16.85 128.9-17.11Q128.9-18.95 127.69-20.02 126.48-21.09 124.79-21.09L124.79-21.09 124.62-21.09 124.48-21.07Q122.11-21.07 120.33-19.07 118.54-17.07 118.54-14.84ZM123.87 0.32L123.87 0.32 123.33 0.32Q118.67 0.32 115.91-2.65 113.15-5.62 113.15-10.57L113.15-10.57 113.15-11.65Q113.15-14.01 114.08-16.46L114.08-16.46Q115.96-21.34 120.2-23.19L120.2-23.19Q122.45-24.19 124.77-24.19L124.77-24.19 125.82-24.19Q129.02-24.19 131.23-22.06 133.44-19.92 133.44-16.55L133.44-16.55 133.44-16.06Q133.44-13.67 131.53-12.67L131.53-12.67Q130.21-11.96 125.38-11.25 120.55-10.55 120.11-10.4L120.11-10.4Q118.64-9.89 118.64-8.45L118.64-8.45Q118.64-6.45 120.35-5.03 122.06-3.61 124.94-3.61L124.94-3.61Q126.28-3.61 128.6-4.35 130.92-5.08 131.29-5.08L131.29-5.08Q132.53-5.08 132.53-4L132.53-4Q132.53-2.56 129.73-1.12 126.92 0.32 123.87 0.32ZM161.12-2.93L161.12-2.93Q161.12-1.12 157.97-1.12L157.97-1.12Q156.19-1.12 155.58-1.98L155.58-1.98Q155.29-2.39 155.29-3.93L155.29-3.93 155.21-5.49Q155.04-8.06 155.04-10.64L155.04-10.64Q155.04-16.24 154.08-18.15 153.11-20.07 150.84-20.07L150.84-20.07Q149.33-20.07 148.05-19.17 146.76-18.26 146.08-16.65L146.08-16.65Q144.67-13.35 144.67-4.47L144.67-4.47Q144.67-2.44 143.9-1.61 143.13-0.78 141.93-0.78L141.93-0.78 141.44-0.78Q138.71-0.78 138.71-2.95L138.71-2.95 138.71-3.54Q138.71-3.81 139-4.71L139-4.71 139.39-5.83Q139.98-7.81 139.98-14.31L139.98-14.31 140.1-21.56Q140.1-22.95 141.61-22.95 143.13-22.95 144.6-21.95 146.08-20.95 146.48-20.95 146.89-20.95 147.91-21.51L147.91-21.51Q151.35-23.39 153.43-23.39L153.43-23.39 154.06-23.39Q157.8-23.39 159.31-20.02L159.31-20.02Q160.05-18.43 160.05-13.18L160.05-13.18 160.05-13.01Q160.05-12.57 160.02-12.13L160.02-12.13Q160.02-10.94 160.02-10.89L160.02-10.89Q160.02-10.42 160.02-9.99L160.02-9.99Q160.02-9.64 160.02-9.33L160.02-9.33Q160.02-7.45 160.14-6.76L160.14-6.76Q160.31-5.83 160.71-4.83L160.71-4.83Q161.12-3.74 161.12-2.93ZM199.62-24.76L199.62-24.76 199.62-25.46Q199.62-28.13 197.86-29.61 196.1-31.1 193-31.1L193-31.1 192.12-31.1Q189.78-31.1 189.07-30.47 188.36-29.83 188.36-27.51L188.36-27.51 188.31-27.08 188-20.09 188-19.24Q188-18.33 188.5-18.02 189-17.7 190.41-17.7L190.41-17.7 190.63-17.72 191.49-17.75 192.34-17.8Q195.42-17.8 197.52-19.74 199.62-21.68 199.62-24.76ZM187.85-7.59L187.85-7.59 188.36-3.52Q188.36-2.15 187.23-1.34 186.09-0.54 184.21-0.54L184.21-0.54Q180.84-0.54 180.84-3.22L180.84-3.22Q180.84-3.78 181.53-5.21 182.21-6.64 182.36-8.08L182.36-8.08Q182.99-14.33 182.99-23.05L182.99-23.05 183.01-23.78Q183.04-24.51 183.04-25.22L183.04-25.22 183.09-27.39Q183.09-30.15 182.94-31.25L182.94-31.25 182.84-31.76Q182.72-32.47 182.72-32.67L182.72-32.67Q182.72-33.76 184.33-34.11 185.94-34.45 190.95-34.45L190.95-34.45 193.24-34.45Q201.5-34.45 203.96-29.61L203.96-29.61Q204.82-27.88 204.82-25.54L204.82-25.54Q204.82-21.24 201.2-17.7L201.2-17.7Q199.2-15.75 199.2-14.55 199.2-13.35 202.18-7.93L202.18-7.93Q203.16-6.18 204.62-4.54 206.09-2.91 206.09-2.22L206.09-2.22 206.09-1.73Q206.09-0.42 203.94-0.42 201.79-0.42 200.75-1.55 199.71-2.69 197.28-7.2 194.86-11.72 194.61-12.01L194.61-12.01Q193.1-13.82 191.32-13.82 189.53-13.82 188.46-11.96L188.46-11.96Q187.85-10.91 187.85-7.59ZM219.44-3.08L219.44-3.08 220.07-3.08Q222.07-3.08 223.6-4.43 225.13-5.79 225.13-7.57L225.13-7.57 225.18-7.89 225.18-8.2 225.22-8.96 225.22-10.35Q225.22-11.77 223.78-11.77L223.78-11.77 222.69-11.77 222.51-11.74 221.56-11.67Q220.88-11.57 220.59-11.57L220.59-11.57Q218.61-11.57 216.92-10.08L216.92-10.08Q215.75-9.03 215.75-7.1L215.75-7.1 215.75-6.62Q215.75-4.98 216.81-4.03 217.88-3.08 219.44-3.08ZM213.99-18.68L213.99-18.68Q212.36-18.68 212.36-20.78L212.36-20.78Q212.36-22.34 215.01-23.5 217.66-24.66 220.51-24.66L220.51-24.66 221.73-24.66Q224.2-24.66 226.08-23.74 227.96-22.83 228.95-21.26 229.94-19.7 230.16-17.19L230.16-17.19Q230.2-16.6 230.2-11.5 230.2-6.4 230.34-5.63 230.47-4.86 231.12-3.76 231.77-2.66 231.77-1.95 231.77-1.25 231.1-0.74 230.42-0.24 229.15-0.24 227.89-0.24 226.4-0.87 224.91-1.49 224.22-1.49L224.22-1.49Q224.15-1.49 221.78-0.62 219.41 0.24 217.78 0.24L217.78 0.24 217.24 0.24Q214.51 0.24 212.59-1.49 210.67-3.22 210.67-6.42 210.67-9.62 212.77-11.41 214.87-13.21 217.88-13.87L217.88-13.87Q218.78-14.06 220.88-14.38 222.98-14.7 223.73-15.04L223.73-15.04Q225.05-15.65 225.05-17.35 225.05-19.04 223.93-20.01 222.81-20.97 221.26-20.97 219.71-20.97 217.19-19.82 214.68-18.68 213.99-18.68ZM245.51-31.67L245.51-31.67 245.51-30.93Q245.44-30.64 245.44-30.42L245.44-30.42Q245.44-29.39 244.57-28.67 243.7-27.95 242.36-27.95L242.36-27.95 242.07-27.95Q241.07-27.95 240.38-28.5 239.7-29.05 239.7-30.32L239.7-30.32 239.7-31.18Q239.7-32.4 240.5-33.2 241.31-34.01 242.21-34.01L242.21-34.01Q242.36-34.06 242.48-34.06L242.48-34.06 242.87-34.11 243.24-34.11Q244.36-34.11 244.94-33.39 245.51-32.67 245.51-31.67ZM235.52 9.91L235.52 9.91 234.72 9.91Q232.59 9.91 232.59 8.42L232.59 8.42Q232.59 7.28 233.4 6.64L233.4 6.64Q233.74 6.37 234.55 6.1L234.55 6.1 236.01 5.62Q237.28 5.05 237.97 3.49L237.97 3.49Q239.53-0.15 239.53-9.47L239.53-9.47 239.65-11.74Q239.72-13.11 239.72-15.27 239.72-17.43 239.54-18.21 239.36-18.99 238.93-20.17 238.5-21.34 238.5-22.02 238.5-22.71 239.26-23.21 240.02-23.71 241.82-23.71L241.82-23.71 242.24-23.71Q243.73-23.71 244.34-22.41L244.34-22.41Q244.73-21.61 244.73-19.65L244.73-19.65 244.73-17.46 244.63-14.75Q244.58-13.82 244.58-13.38L244.58-13.38 244.53-12.48Q244.48-11.57 244.48-11.13L244.48-11.13 244.34-7.96Q244.34 1.42 242.38 5.32L242.38 5.32Q241.41 7.28 239.54 8.59 237.67 9.91 235.52 9.91ZM268.38-12.48L268.38-14.09Q268.38-17.33 267.03-19.18 265.67-21.02 263.79-21.02L263.79-21.02 263.09-21.02Q260.45-21.02 258.91-18.93 257.37-16.85 257.37-12.79L257.37-12.79 257.32-12.3 257.23-9.77 257.23-8.06Q257.23-5.4 258.31-4.31 259.4-3.22 261.4-3.22L261.4-3.22 261.86-3.22Q264.62-3.22 266.48-5.76 268.33-8.3 268.33-11.94L268.33-11.94 268.38-12.48ZM255.1-23.27L255.1-23.27 258.52-22.68Q259.06-22.68 261.03-23.39 263.01-24.1 264.92-24.1L264.92-24.1Q268.77-24.1 271.17-21.4 273.56-18.7 273.56-14.14L273.56-14.14 273.56-13.53Q273.56-10.45 272.53-7.86L272.53-7.86Q270.43-2.51 265.53-0.95L265.53-0.95Q264.14-0.51 261.8-0.34 259.47-0.17 258.5 0.27L258.5 0.27Q257.01 0.95 257.01 2.73L257.01 2.73Q257.01 3.49 257.29 4.79 257.57 6.08 257.57 7.18 257.57 8.28 256.32 9.34 255.08 10.4 253.22 10.4L253.22 10.4 252.71 10.4Q250.51 10.4 250.51 8.79L250.51 8.79 250.51 8.33Q250.51 7.98 250.99 6.41 251.46 4.83 251.66 3.04 251.85 1.25 252.29-5.88 252.73-13.01 252.73-15.64 252.73-18.26 252.4-20.04 252.07-21.83 252.07-21.97L252.07-21.97Q252.07-23.27 255.1-23.27ZM278.78-21.95L278.78-21.95Q278.78-23.49 281.37-23.49L281.37-23.49 281.93-23.49Q283.54-23.49 284.1-22.19 284.66-20.9 284.66-17.36L284.66-17.36 284.37-9.2Q284.37-3.52 288.45-3.52L288.45-3.52Q289.94-3.52 291.31-4.57 292.67-5.62 293.33-7.08L293.33-7.08Q294.77-10.3 294.77-18.63L294.77-18.63 294.72-19.7 294.72-20.65Q294.72-21.95 295.31-22.53 295.9-23.12 297.36-23.12 298.83-23.12 299.29-22.41 299.75-21.7 299.75-20.12L299.75-20.12 299.7-18.82 299.61-13.06Q299.61-11.67 299.78-8.79 299.95-5.91 300.14-4.58 300.34-3.25 300.34-3L300.34-3Q300.34-0.83 297.14-0.83L297.14-0.83Q296.04-0.83 294.96-1.65 293.87-2.47 293.42-2.47 292.97-2.47 291.89-1.93L291.89-1.93Q288.84-0.39 286.69-0.39L286.69-0.39 286.08-0.39Q282.59-0.39 280.95-2.54 279.32-4.69 279.32-10.28L279.32-10.28 279.56-17.68Q279.56-19.07 279.17-20.34 278.78-21.61 278.78-21.95ZM319.16-2.61L319.16-2.61Q319.16-1.64 317.98-0.87 316.79-0.1 314.76-0.1L314.76-0.1Q310.98-0.1 309.44-2.91L309.44-2.91Q308.49-4.66 308.49-11.13 308.49-17.6 308.27-18.65 308.05-19.7 307.05-20.7 306.05-21.7 306.05-22.24L306.05-22.24Q306.05-22.44 308.42-24.8L308.42-24.8Q308.93-25.32 309.45-27.08 309.98-28.83 310.2-29.39L310.2-29.39Q310.93-31.15 312.13-31.15L312.13-31.15 312.52-31.15Q313.57-31.15 314.01-30.35L314.01-30.35Q314.18-30.03 314.53-28.06 314.89-26.1 315.35-25.54 315.81-24.98 317.68-24.3 319.55-23.63 319.55-22.88L319.55-22.88 319.55-22.61Q319.55-21.63 317.41-20.96 315.28-20.29 314.67-18.82L314.67-18.82Q313.47-15.87 313.47-9.2L313.47-9.2Q313.47-6.08 314.55-4.96L314.55-4.96Q315.2-4.27 317.18-4 319.16-3.74 319.16-2.61Z" opacity="1" transform="matrix(1,0,0,1,0,0)" fill="#505050" class="wordmark-text-0" data-fill-palette-color="primary" id="text-0"></path></svg></g></svg></g><g transform="matrix(1,0,0,1,318.9299976655859,69.32963069154238)"><svg viewBox="0 0 76.59000233441408 34.66268398332561" height="34.66268398332561" width="76.59000233441408"><g transform="matrix(1,0,0,1,0,0)"><svg width="76.59000233441408" viewBox="2.45 -32.75 73.8 33.4" height="34.66268398332561" data-palette-color="#c6c8c9"><path d="M19.5-3.95L19.5-3.95 19.5-20.75 23.5-20.8 23.5-3.8Q23.5-2.85 23.08-2.27 22.65-1.7 21.75-1.15L21.75-1.15Q20.75-0.5 18.9 0.08 17.05 0.65 14.65 0.65L14.65 0.65Q11.05 0.65 8.3-0.6 5.55-1.85 4-4.53 2.45-7.2 2.45-11.45L2.45-11.45Q2.45-15.8 3.98-18.5 5.5-21.2 8.1-22.48 10.7-23.75 13.8-23.75L13.8-23.75Q15.75-23.75 17.5-23.2 19.25-22.65 20.25-21.85L20.25-21.85 20.25-18.15Q19.3-19.1 17.78-19.78 16.25-20.45 14.2-20.45L14.2-20.45Q12.15-20.45 10.4-19.58 8.65-18.7 7.6-16.7 6.55-14.7 6.55-11.35L6.55-11.35Q6.55-6.8 8.75-4.73 10.95-2.65 14.6-2.65L14.6-2.65Q16.35-2.65 17.48-3.03 18.6-3.4 19.5-3.95ZM23.5-30.95L23.5-19.8 19.5-19.75 19.5-32.4Q19.75-32.5 20.28-32.63 20.8-32.75 21.35-32.75L21.35-32.75Q22.45-32.75 22.98-32.33 23.5-31.9 23.5-30.95L23.5-30.95ZM49.35-11.35L32.55-9 32.35-12.15 47.45-14.2Q47.25-16.95 45.55-18.73 43.85-20.5 40.85-20.5L40.85-20.5Q37.75-20.5 35.72-18.28 33.7-16.05 33.7-11.9L33.7-11.9 33.7-10.8Q34.05-6.8 36.32-4.73 38.6-2.65 42.55-2.65L42.55-2.65Q44.65-2.65 46.35-3.35 48.05-4.05 49.05-4.85L49.05-4.85Q49.6-4.5 49.92-4.03 50.25-3.55 50.25-2.95L50.25-2.95Q50.25-2 49.17-1.18 48.1-0.35 46.32 0.15 44.55 0.65 42.35 0.65L42.35 0.65Q38.5 0.65 35.67-0.75 32.85-2.15 31.32-4.93 29.8-7.7 29.8-11.7L29.8-11.7Q29.8-14.55 30.62-16.78 31.45-19 32.92-20.55 34.4-22.1 36.45-22.93 38.5-23.75 40.9-23.75L40.9-23.75Q43.95-23.75 46.27-22.45 48.6-21.15 49.92-18.82 51.25-16.5 51.25-13.5L51.25-13.5Q51.25-12.4 50.75-11.93 50.25-11.45 49.35-11.35L49.35-11.35ZM74.34-23.55L74.34-23.55Q75.2-23.55 75.72-23.1 76.25-22.65 76.25-21.8L76.25-21.8Q76.25-21.15 75.7-19.35 75.15-17.55 74.25-15.05 73.34-12.55 72.27-9.83 71.2-7.1 70.07-4.58 68.95-2.05 68-0.2L68-0.2Q67.75 0 67.12 0.15 66.5 0.3 65.8 0.3L65.8 0.3Q64.95 0.3 64.3 0.03 63.65-0.25 63.4-0.75L63.4-0.75Q62.84-1.75 61.97-3.68 61.09-5.6 60.09-8.05 59.09-10.5 58.07-13.13 57.05-15.75 56.2-18.18 55.34-20.6 54.8-22.45L54.8-22.45Q55.15-22.95 55.75-23.25 56.34-23.55 56.95-23.55L56.95-23.55Q57.84-23.55 58.34-23.1 58.84-22.65 59.2-21.6L59.2-21.6 62.3-12.65Q62.7-11.5 63.34-9.8 64-8.1 64.65-6.4 65.3-4.7 65.7-3.55L65.7-3.55 65.9-3.55Q67.9-8.6 69.65-13.53 71.4-18.45 72.65-23.15L72.65-23.15Q73.3-23.55 74.34-23.55Z" opacity="1" transform="matrix(1,0,0,1,0,0)" fill="#c6c8c9" class="slogan-text-1" data-fill-palette-color="secondary" id="text-1"></path></svg></g></svg></g></svg></g></svg></g><g transform="matrix(1,0,0,1,408.7611452816304,0)"><svg viewBox="0 0 244.43135999999998 142.74036887134963" height="142.74036887134963" width="244.43135999999998"><g><svg xmlns="http://www.w3.org/2000/svg" xmlns:xlink="http://www.w3.org/1999/xlink" version="1.1" x="0" y="0" viewBox="13.102 35.206 68.41799999999999 39.95399999999999" enable-background="new 0 0 100 100" xml:space="preserve" height="142.74036887134963" width="244.43135999999998" class="icon-icon-0" data-fill-palette-color="accent" id="icon-0"><g fill="#f39361" data-fill-palette-color="accent"><g fill="#f39361" data-fill-palette-color="accent"><g fill="#f39361" data-fill-palette-color="accent"><g fill="#f39361" data-fill-palette-color="accent"><path d="M25.036 69.202H70.116V40.091H25.036zM79.938 73.896C79.938 74.593 77.844 75.16 77.204 75.16H17.419C16.778 75.16 14.685 74.594 14.685 73.896L13.102 70.765C13.102 70.068 13.611 69.523 14.251 69.523H20.153V38.675C20.153 36.773 21.754 35.206 23.733 35.206H71.416C73.394 35.206 74.997 36.772 74.997 38.675V69.523H80.371C81.012 69.523 81.52 70.068 81.52 70.765z" fill="#f39361" data-fill-palette-color="accent"></path></g></g></g></g></svg></g></svg></g></svg></g><defs></defs></svg><rect width="395.52" height="86.43190214139759" fill="none" stroke="none" visibility="hidden"></rect></g></svg></g></svg>